<svg width="340" height="72" viewBox="0 0 340 72" fill="none" xmlns="http://www.w3.org/2000/svg">
<path d="M15.65 39.35C15.1167 38.2167 14.6 37 14.1 35.7C13.6333 34.3667 13.2167 33.1 12.85 31.9C12.5167 30.6667 12.25 29.65 12.05 28.85H11.9C12.2667 30.7833 12.55 33.0167 12.75 35.55C12.95 38.05 13.05 40.7333 13.05 43.6V58H10.65V26.15H12L26.05 55.6H33.55V19H35.95V58H24.55L15.65 39.35ZM13.9 21.4H6.8V58H4.4V19H15.4L24.35 37.45C25.0167 38.8167 25.6333 40.2167 26.2 41.65C26.7667 43.05 27.2333 44.3167 27.6 45.45C28 46.55 28.2333 47.3333 28.3 47.8H28.55C28.1167 45.3333 27.8 42.9167 27.6 40.55C27.4 38.1833 27.3 36.0333 27.3 34.1V19H29.7V50.5H28.05L13.9 21.4ZM69.382 52.9C67.7487 54.8333 65.9654 56.2667 64.032 57.2C62.0987 58.1333 59.5654 58.6 56.432 58.6C53.5987 58.6 51.1154 58.0167 48.982 56.85C46.8487 55.65 45.182 53.9667 43.982 51.8C42.8154 49.6 42.232 47.0167 42.232 44.05C42.232 41.3833 42.7654 38.95 43.832 36.75C44.932 34.55 46.5154 32.8 48.582 31.5C50.682 30.1667 53.232 29.5 56.232 29.5C58.9987 29.5 61.382 30.1 63.382 31.3C65.382 32.4667 66.932 34.1333 68.032 36.3C69.132 38.4333 69.682 40.9833 69.682 43.95C69.682 44.1167 69.6654 44.3 69.632 44.5C69.632 44.6667 69.632 44.85 69.632 45.05L50.332 47.45C50.5987 48.7167 51.3487 49.75 52.582 50.55C53.8487 51.35 55.3487 51.75 57.082 51.75C58.7154 51.75 60.2487 51.4167 61.682 50.75C63.1154 50.0833 64.282 49.1 65.182 47.8L66.732 49.7C65.332 51.2667 63.8654 52.4 62.332 53.1C60.7987 53.8 59.0487 54.15 57.082 54.15C54.7487 54.15 52.7154 53.4667 50.982 52.1C49.282 50.7 48.1154 48.45 47.482 45.35L67.232 42.9C67.032 39.5 65.9654 36.8167 64.032 34.85C62.0987 32.8833 59.4987 31.9 56.232 31.9C53.732 31.9 51.6154 32.45 49.882 33.55C48.1487 34.65 46.832 36.1167 45.932 37.95C45.0654 39.7833 44.632 41.8167 44.632 44.05C44.632 46.5167 45.1154 48.6667 46.082 50.5C47.0487 52.3333 48.4154 53.75 50.182 54.75C51.9487 55.75 54.032 56.25 56.432 56.25C58.332 56.25 59.9487 56.05 61.282 55.65C62.6487 55.25 63.8487 54.6667 64.882 53.9C65.9487 53.1333 66.9487 52.2 67.882 51.1L69.382 52.9ZM47.382 43.45C47.7487 40.1833 48.7154 37.7833 50.282 36.25C51.8487 34.6833 53.8154 33.9 56.182 33.9C58.3487 33.9 60.1154 34.55 61.482 35.85C62.8487 37.15 63.7154 38.9667 64.082 41.3L47.382 43.45ZM61.332 39.5C61.232 38.7333 60.7154 38.0167 59.782 37.35C58.8487 36.65 57.6487 36.3 56.182 36.3C55.0487 36.3 54.032 36.5333 53.132 37C52.232 37.4333 51.5154 38.0167 50.982 38.75C50.4487 39.45 50.132 40.1833 50.032 40.95L61.332 39.5ZM95.5344 32.55H89.6844L84.9844 54H82.7844L77.6344 30.15H80.0844L83.3344 45.6C83.4344 45.9667 83.5177 46.5667 83.5844 47.4C83.651 48.2 83.701 49.0167 83.7344 49.85C83.801 50.65 83.8344 51.2333 83.8344 51.6H84.0344C84.0344 51.2667 84.051 50.7 84.0844 49.9C84.1177 49.0667 84.1677 48.25 84.2344 47.45C84.301 46.6167 84.3677 46.0333 84.4344 45.7L87.7344 30.15H97.4344L101.034 45.9C101.134 46.3333 101.218 46.9333 101.284 47.7C101.351 48.4333 101.401 49.1667 101.434 49.9C101.468 50.6333 101.484 51.2 101.484 51.6H101.634C101.668 51.2 101.701 50.6333 101.734 49.9C101.768 49.1333 101.818 48.3833 101.884 47.65C101.951 46.8833 102.018 46.3 102.084 45.9L105.184 30.15H107.584L102.834 54H100.584L95.5344 32.55ZM93.3344 43.1C93.1677 42.2667 93.0344 41.2167 92.9344 39.95C92.8344 38.6833 92.7844 37.6167 92.7844 36.75H92.5844C92.5844 37.5833 92.5177 38.6333 92.3844 39.9C92.251 41.1667 92.101 42.2333 91.9344 43.1L88.7344 58H78.3844L71.2344 30.15H73.6844L80.2344 55.6H86.7844L91.5344 34.35H93.9344L98.2344 55.6H104.234L111.034 30.15H113.534L106.034 58H96.2844L93.3344 43.1ZM141.911 43.1H151.211C154.544 43.1 157.161 42.1167 159.061 40.15C160.961 38.1833 161.911 35.5333 161.911 32.2C161.911 30.1 161.477 28.25 160.611 26.65C159.744 25.0167 158.527 23.7333 156.961 22.8C155.394 21.8667 153.527 21.4 151.361 21.4H137.611V58H135.211V19H151.361C153.994 19 156.277 19.5667 158.211 20.7C160.144 21.8333 161.644 23.4 162.711 25.4C163.777 27.3667 164.311 29.6333 164.311 32.2C164.311 36.3 163.144 39.55 160.811 41.95C158.477 44.3167 155.277 45.5 151.211 45.5H144.311V58H141.911V43.1ZM141.761 24.25H149.311C151.677 24.25 153.644 24.9 155.211 26.2C156.811 27.5 157.611 29.5167 157.611 32.25C157.611 34.05 157.244 35.55 156.511 36.75C155.777 37.9167 154.777 38.8 153.511 39.4C152.277 39.9667 150.894 40.25 149.361 40.25H141.761V24.25ZM149.361 37.85C150.994 37.85 152.377 37.4 153.511 36.5C154.644 35.5667 155.211 34.15 155.211 32.25C155.211 30.3167 154.644 28.9 153.511 28C152.377 27.1 150.977 26.65 149.311 26.65H144.161V37.85H149.361ZM187.506 31.95C185.473 31.95 183.706 32.15 182.206 32.55C180.706 32.95 179.373 33.6333 178.206 34.6C177.04 35.5667 175.956 36.9333 174.956 38.7V30.15H177.356V32.9C178.356 31.7 179.573 30.85 181.006 30.35C182.473 29.8167 184.506 29.5333 187.106 29.5L187.506 31.95ZM169.806 30.15H172.206V58H169.806V30.15ZM176.156 39.75C177.19 37.7833 178.44 36.3833 179.906 35.55C181.406 34.6833 183.323 34.25 185.656 34.25C186.023 34.25 186.39 34.2667 186.756 34.3C187.123 34.3 187.506 34.3167 187.906 34.35L188.356 36.95C187.79 36.8167 187.223 36.7333 186.656 36.7C186.123 36.6333 185.606 36.6 185.106 36.6C181.84 36.6 179.656 37.8333 178.556 40.3V58H176.156V39.75ZM220.116 44.1C220.116 47.0333 219.533 49.5833 218.366 51.75C217.199 53.9167 215.516 55.6 213.316 56.8C211.149 58 208.549 58.6 205.516 58.6C202.483 58.6 199.866 58 197.666 56.8C195.466 55.6 193.766 53.9167 192.566 51.75C191.399 49.5833 190.816 47.0333 190.816 44.1C190.816 41.1333 191.399 38.5667 192.566 36.4C193.766 34.2 195.466 32.5 197.666 31.3C199.866 30.1 202.483 29.5 205.516 29.5C208.549 29.5 211.149 30.1 213.316 31.3C215.516 32.5 217.199 34.2 218.366 36.4C219.533 38.5667 220.116 41.1333 220.116 44.1ZM217.716 44.1C217.716 41.6333 217.216 39.4833 216.216 37.65C215.249 35.8167 213.849 34.4 212.016 33.4C210.216 32.4 208.049 31.9 205.516 31.9C202.983 31.9 200.799 32.4 198.966 33.4C197.133 34.4 195.716 35.8167 194.716 37.65C193.716 39.4833 193.216 41.6333 193.216 44.1C193.216 46.5333 193.716 48.6667 194.716 50.5C195.716 52.3333 197.133 53.75 198.966 54.75C200.799 55.75 202.983 56.25 205.516 56.25C208.049 56.25 210.216 55.75 212.016 54.75C213.849 53.75 215.249 52.3333 216.216 50.5C217.216 48.6667 217.716 46.5333 217.716 44.1ZM205.516 54.15C203.116 54.15 201.149 53.2667 199.616 51.5C198.083 49.7333 197.316 47.2667 197.316 44.1C197.316 40.9333 198.083 38.4833 199.616 36.75C201.149 34.9833 203.116 34.1 205.516 34.1C207.916 34.1 209.866 34.9833 211.366 36.75C212.866 38.4833 213.616 40.9333 213.616 44.1C213.616 47.3333 212.866 49.8167 211.366 51.55C209.866 53.2833 207.916 54.15 205.516 54.15ZM205.516 51.75C207.283 51.75 208.666 51.0667 209.666 49.7C210.699 48.3333 211.216 46.4667 211.216 44.1C211.216 41.7333 210.699 39.8833 209.666 38.55C208.666 37.1833 207.283 36.5 205.516 36.5C203.749 36.5 202.333 37.1833 201.266 38.55C200.233 39.8833 199.716 41.7333 199.716 44.1C199.716 46.4333 200.233 48.3 201.266 49.7C202.333 51.0667 203.749 51.75 205.516 51.75ZM249.971 19H252.371V58H249.971V19ZM245.171 55.2C244.671 56 243.955 56.65 243.021 57.15C242.088 57.65 241.071 58.0167 239.971 58.25C238.871 58.4833 237.821 58.6 236.821 58.6C234.355 58.6 232.138 58.05 230.171 56.95C228.238 55.85 226.705 54.2333 225.571 52.1C224.471 49.9333 223.921 47.2667 223.921 44.1C223.921 40.9 224.521 38.2167 225.721 36.05C226.921 33.8833 228.488 32.25 230.421 31.15C232.388 30.05 234.488 29.5 236.721 29.5C238.355 29.5 239.738 29.7167 240.871 30.15C242.005 30.55 242.921 31.1 243.621 31.8V19H246.021V36.8C244.788 35.3333 243.655 34.2667 242.621 33.6C241.588 32.9 240.588 32.45 239.621 32.25C238.688 32.0167 237.721 31.9 236.721 31.9C234.888 31.9 233.171 32.3667 231.571 33.3C230.005 34.2333 228.738 35.6167 227.771 37.45C226.805 39.25 226.321 41.4667 226.321 44.1C226.321 48.0333 227.305 51.05 229.271 53.15C231.238 55.2167 233.755 56.25 236.821 56.25C238.055 56.25 239.288 56.0833 240.521 55.75C241.788 55.3833 243.021 54.7 244.221 53.7C245.421 52.6667 246.538 51.1333 247.571 49.1V58H245.171V55.2ZM246.221 45.8C246.221 47.3 245.871 48.65 245.171 49.85C244.471 51.05 243.555 52 242.421 52.7C241.321 53.3667 240.105 53.7 238.771 53.7C236.371 53.7 234.371 52.9333 232.771 51.4C231.205 49.8333 230.421 47.45 230.421 44.25C230.421 42.05 230.805 40.2333 231.571 38.8C232.371 37.3667 233.405 36.3 234.671 35.6C235.938 34.9 237.288 34.55 238.721 34.55C240.521 34.55 242.088 35.1167 243.421 36.25C244.755 37.35 245.688 38.65 246.221 40.15V45.8ZM243.821 40.55C243.488 39.5833 242.871 38.75 241.971 38.05C241.105 37.3167 240.021 36.95 238.721 36.95C237.088 36.95 235.688 37.5667 234.521 38.8C233.388 40.0333 232.821 41.85 232.821 44.25C232.821 46.5833 233.371 48.35 234.471 49.55C235.571 50.7167 237.005 51.3 238.771 51.3C240.171 51.3 241.355 50.8 242.321 49.8C243.321 48.7667 243.821 47.4333 243.821 45.8V40.55ZM279.662 30.15V47.75C279.128 49.6833 278.145 51.1667 276.712 52.2C275.278 53.2 273.662 53.7 271.862 53.7C270.028 53.7 268.512 53.1333 267.312 52C266.112 50.8333 265.512 49.15 265.512 46.95V30.15H267.912V46.95C267.912 48.35 268.278 49.4333 269.012 50.2C269.745 50.9333 270.695 51.3 271.862 51.3C273.128 51.3 274.262 50.9667 275.262 50.3C276.262 49.6333 276.928 48.6833 277.262 47.45V30.15H279.662ZM283.612 30.15H286.012V58H283.612V30.15ZM278.062 55.45C277.362 56.45 276.278 57.2333 274.812 57.8C273.378 58.3333 271.528 58.6 269.262 58.6C266.162 58.6 263.695 57.6667 261.862 55.8C260.028 53.9333 259.112 51.4833 259.112 48.45V30.15H261.512V48.45C261.512 50.7833 262.212 52.6667 263.612 54.1C265.012 55.5333 266.895 56.25 269.262 56.25C270.528 56.25 271.795 56.1333 273.062 55.9C274.328 55.6667 275.578 55.1333 276.812 54.3C278.045 53.4333 279.262 52.1 280.462 50.3V58H278.062V55.45ZM317.454 54.6C316.088 55.9333 314.538 56.9333 312.804 57.6C311.104 58.2667 308.921 58.6 306.254 58.6C303.621 58.6 301.154 58.05 298.854 56.95C296.588 55.85 294.754 54.2333 293.354 52.1C291.988 49.9333 291.304 47.25 291.304 44.05C291.304 41.0833 291.938 38.5167 293.204 36.35C294.471 34.15 296.221 32.4667 298.454 31.3C300.721 30.1 303.321 29.5 306.254 29.5C308.721 29.5 310.788 29.7833 312.454 30.35C314.121 30.9167 315.621 31.7333 316.954 32.8L316.054 35C314.521 33.8333 312.988 33.0333 311.454 32.6C309.954 32.1333 308.221 31.9 306.254 31.9C303.821 31.9 301.654 32.4 299.754 33.4C297.854 34.3667 296.371 35.7667 295.304 37.6C294.238 39.4 293.704 41.55 293.704 44.05C293.704 46.7167 294.288 48.9667 295.454 50.8C296.621 52.6 298.154 53.9667 300.054 54.9C301.988 55.8 304.054 56.25 306.254 56.25C308.588 56.25 310.538 55.95 312.104 55.35C313.704 54.75 315.171 53.7667 316.504 52.4L317.454 54.6ZM315.754 50.7C314.554 51.9 313.254 52.7667 311.854 53.3C310.454 53.8333 309.071 54.1 307.704 54.1C305.971 54.1 304.338 53.75 302.804 53.05C301.304 52.3167 300.088 51.2 299.154 49.7C298.221 48.2 297.754 46.3167 297.754 44.05C297.754 41.7833 298.238 39.9333 299.204 38.5C300.171 37.0333 301.404 35.95 302.904 35.25C304.404 34.5167 305.938 34.15 307.504 34.15C308.771 34.15 310.054 34.3833 311.354 34.85C312.688 35.2833 313.971 36.0333 315.204 37.1L314.204 39.55C313.371 38.5167 312.354 37.7667 311.154 37.3C309.988 36.8 308.771 36.55 307.504 36.55C306.338 36.55 305.188 36.8167 304.054 37.35C302.921 37.8833 301.988 38.7167 301.254 39.85C300.521 40.95 300.154 42.35 300.154 44.05C300.154 45.7833 300.504 47.2167 301.204 48.35C301.938 49.4833 302.871 50.3333 304.004 50.9C305.171 51.4333 306.404 51.7 307.704 51.7C308.971 51.7 310.254 51.4 311.554 50.8C312.888 50.2 313.938 49.3833 314.704 48.35L315.754 50.7ZM330.156 21.45H332.556V30.15H337.256V32.55H330.156V21.45ZM319.806 30.15H324.206V21.45H326.606V32.55H319.806V30.15ZM338.256 53.85C336.456 53.85 335.006 53.7833 333.906 53.65C332.839 53.4833 332.023 53.2 331.456 52.8C330.923 52.4 330.573 51.8 330.406 51C330.239 50.1667 330.156 49.0667 330.156 47.7V34.5H337.256V36.9H332.556V47.7C332.556 48.9 332.673 49.7667 332.906 50.3C333.173 50.8333 333.739 51.1667 334.606 51.3C335.506 51.4 336.889 51.45 338.756 51.45L338.256 53.85ZM337.206 58.6C333.939 58.6 331.323 58.35 329.356 57.85C327.389 57.3167 325.973 56.4 325.106 55.1C324.239 53.7667 323.806 51.9333 323.806 49.6V36.9H319.806V34.5H326.206V49.6C326.206 51.4333 326.573 52.8333 327.306 53.8C328.039 54.7667 329.239 55.4167 330.906 55.75C332.606 56.0833 334.873 56.2667 337.706 56.3L337.206 58.6Z" fill="black"/>
</svg>
