<svg width="261" height="102" viewBox="0 0 261 102" fill="none" xmlns="http://www.w3.org/2000/svg">
<path d="M22.85 21.4H14.75L2.5 58H0L13 19H24.6L37.6 58H35L22.85 21.4ZM17.25 25.35H20.15L26.15 43.6H11.25L17.25 25.35ZM22.85 41.2C22.6833 40.6667 22.4167 39.8667 22.05 38.8C21.6833 37.7333 21.2833 36.55 20.85 35.25C20.4167 33.9167 20.0167 32.6 19.65 31.3C19.2833 29.9667 19.0167 28.7833 18.85 27.75H18.55C18.3833 28.75 18.1167 29.9167 17.75 31.25C17.4167 32.55 17.0333 33.8667 16.6 35.2C16.1667 36.5 15.7667 37.7 15.4 38.8C15.0333 39.8667 14.7667 40.6667 14.6 41.2H22.85ZM25.35 48.85H12.15L9.05 58H6.55L10.45 46.45H27.1L30.85 58H28.35L25.35 48.85ZM48.8477 19H51.2477V49.85H67.7977V52.25H48.8477V19ZM41.9977 19H44.3977V55.6H67.7977V58H41.9977V19ZM73.6871 19H100.687V21.4H76.0871V55.6H101.687V58H73.6871V19ZM80.3871 24.2H100.687V26.6H82.7871V34.3H98.1371V36.7H80.3871V24.2ZM80.3871 39.35H98.1371V41.75H82.7871V50.4H101.687V52.8H80.3871V39.35ZM104.56 19H134.61V21.4H104.56V19ZM121.81 24.2H134.61V26.6H124.21V58H121.81V24.2ZM114.91 26.6H104.56V24.2H117.31V58H114.91V26.6ZM158.85 40.1C160.85 39.3667 162.4 38.5667 163.5 37.7C164.634 36.8333 165.417 35.8167 165.85 34.65C166.317 33.4833 166.55 32.1167 166.55 30.55C166.55 28.6833 166.1 27.0667 165.2 25.7C164.334 24.3333 163.134 23.2833 161.6 22.55C160.067 21.7833 158.3 21.4 156.3 21.4H142.2V58H139.8V19H156.3C158.8 19 161 19.4833 162.9 20.45C164.8 21.4167 166.284 22.7667 167.35 24.5C168.417 26.2 168.95 28.2167 168.95 30.55C168.95 33.5833 168.367 35.9667 167.2 37.7C166.067 39.4 164.434 40.6333 162.3 41.4L171.55 58H168.7L158.85 40.1ZM146.4 24.2H154.6C156.867 24.2 158.684 24.8167 160.05 26.05C161.417 27.25 162.1 28.9 162.1 31C162.1 33.3 161.417 35.0833 160.05 36.35C158.717 37.6167 156.917 38.25 154.65 38.25H146.4V24.2ZM154.65 35.85C156.184 35.85 157.4 35.4333 158.3 34.6C159.234 33.7333 159.7 32.5333 159.7 31C159.7 29.6 159.217 28.5167 158.25 27.75C157.317 26.9833 156.1 26.6 154.6 26.6H148.8V35.85H154.65ZM153.85 43H148.75V58H146.35V40.6H155.4L163.4 58H160.75L153.85 43ZM195.164 21.4H187.064L174.814 58H172.314L185.314 19H196.914L209.914 58H207.314L195.164 21.4ZM189.564 25.35H192.464L198.464 43.6H183.564L189.564 25.35ZM195.164 41.2C194.998 40.6667 194.731 39.8667 194.364 38.8C193.998 37.7333 193.598 36.55 193.164 35.25C192.731 33.9167 192.331 32.6 191.964 31.3C191.598 29.9667 191.331 28.7833 191.164 27.75H190.864C190.698 28.75 190.431 29.9167 190.064 31.25C189.731 32.55 189.348 33.8667 188.914 35.2C188.481 36.5 188.081 37.7 187.714 38.8C187.348 39.8667 187.081 40.6667 186.914 41.2H195.164ZM197.664 48.85H184.464L181.364 58H178.864L182.764 46.45H199.414L203.164 58H200.664L197.664 48.85ZM221.512 19H223.912V58H221.512V19ZM214.512 19H216.912V58H214.512V19ZM239.766 19H242.166V49.85H258.716V52.25H239.766V19ZM232.916 19H235.316V55.6H258.716V58H232.916V19Z" fill="black"/>
<path d="M59.94 86.86C60.6867 86.9933 61.32 87.3867 61.84 88.04C62.36 88.6933 62.62 89.4333 62.62 90.26C62.62 90.9667 62.4333 91.6067 62.06 92.18C61.7 92.74 61.1733 93.1867 60.48 93.52C59.7867 93.84 58.98 94 58.06 94H52.5V80.1H57.8C58.7467 80.1 59.56 80.26 60.24 80.58C60.92 80.9 61.4333 81.3333 61.78 81.88C62.1267 82.4133 62.3 83.0133 62.3 83.68C62.3 84.48 62.0867 85.1467 61.66 85.68C61.2333 86.2133 60.66 86.6067 59.94 86.86ZM54.78 85.94H57.6C58.3467 85.94 58.9267 85.7733 59.34 85.44C59.7667 85.0933 59.98 84.6 59.98 83.96C59.98 83.3333 59.7667 82.8467 59.34 82.5C58.9267 82.14 58.3467 81.96 57.6 81.96H54.78V85.94ZM57.86 92.14C58.6333 92.14 59.24 91.9533 59.68 91.58C60.12 91.2067 60.34 90.6867 60.34 90.02C60.34 89.34 60.1067 88.8 59.64 88.4C59.1733 88 58.5533 87.8 57.78 87.8H54.78V92.14H57.86ZM75.3777 81.94V86.02H80.1777V87.88H75.3777V92.14H80.7777V94H73.0977V80.08H80.7777V81.94H75.3777ZM93.8659 81.94V86.02H98.6659V87.88H93.8659V92.14H99.2659V94H91.5859V80.08H99.2659V81.94H93.8659ZM117.294 94L114.094 88.44H112.354V94H110.074V80.1H114.874C115.941 80.1 116.841 80.2867 117.574 80.66C118.321 81.0333 118.874 81.5333 119.234 82.16C119.608 82.7867 119.794 83.4867 119.794 84.26C119.794 85.1667 119.528 85.9933 118.994 86.74C118.474 87.4733 117.668 87.9733 116.574 88.24L120.014 94H117.294ZM112.354 86.62H114.874C115.728 86.62 116.368 86.4067 116.794 85.98C117.234 85.5533 117.454 84.98 117.454 84.26C117.454 83.54 117.241 82.98 116.814 82.58C116.388 82.1667 115.741 81.96 114.874 81.96H112.354V86.62ZM162.006 80.1L157.886 94H155.306L152.386 83.48L149.286 94L146.726 94.02L142.786 80.1H145.206L148.086 91.42L151.206 80.1H153.766L156.666 91.36L159.566 80.1H162.006ZM174.167 80.1V94H171.887V80.1H174.167ZM196.58 94H194.3L187.44 83.62V94H185.16V80.08H187.44L194.3 90.44V80.08H196.58V94ZM209.854 81.94V86.02H214.654V87.88H209.854V92.14H215.254V94H207.574V80.08H215.254V81.94H209.854Z" fill="black"/>
</svg>
