<svg width="298" height="72" viewBox="0 0 298 72" fill="none" xmlns="http://www.w3.org/2000/svg">
<path d="M15.65 39.35C15.1167 38.2167 14.6 37 14.1 35.7C13.6333 34.3667 13.2167 33.1 12.85 31.9C12.5167 30.6667 12.25 29.65 12.05 28.85H11.9C12.2667 30.7833 12.55 33.0167 12.75 35.55C12.95 38.05 13.05 40.7333 13.05 43.6V58H10.65V26.15H12L26.05 55.6H33.55V19H35.95V58H24.55L15.65 39.35ZM13.9 21.4H6.8V58H4.4V19H15.4L24.35 37.45C25.0167 38.8167 25.6333 40.2167 26.2 41.65C26.7667 43.05 27.2333 44.3167 27.6 45.45C28 46.55 28.2333 47.3333 28.3 47.8H28.55C28.1167 45.3333 27.8 42.9167 27.6 40.55C27.4 38.1833 27.3 36.0333 27.3 34.1V19H29.7V50.5H28.05L13.9 21.4ZM69.382 52.9C67.7487 54.8333 65.9654 56.2667 64.032 57.2C62.0987 58.1333 59.5654 58.6 56.432 58.6C53.5987 58.6 51.1154 58.0167 48.982 56.85C46.8487 55.65 45.182 53.9667 43.982 51.8C42.8154 49.6 42.232 47.0167 42.232 44.05C42.232 41.3833 42.7654 38.95 43.832 36.75C44.932 34.55 46.5154 32.8 48.582 31.5C50.682 30.1667 53.232 29.5 56.232 29.5C58.9987 29.5 61.382 30.1 63.382 31.3C65.382 32.4667 66.932 34.1333 68.032 36.3C69.132 38.4333 69.682 40.9833 69.682 43.95C69.682 44.1167 69.6654 44.3 69.632 44.5C69.632 44.6667 69.632 44.85 69.632 45.05L50.332 47.45C50.5987 48.7167 51.3487 49.75 52.582 50.55C53.8487 51.35 55.3487 51.75 57.082 51.75C58.7154 51.75 60.2487 51.4167 61.682 50.75C63.1154 50.0833 64.282 49.1 65.182 47.8L66.732 49.7C65.332 51.2667 63.8654 52.4 62.332 53.1C60.7987 53.8 59.0487 54.15 57.082 54.15C54.7487 54.15 52.7154 53.4667 50.982 52.1C49.282 50.7 48.1154 48.45 47.482 45.35L67.232 42.9C67.032 39.5 65.9654 36.8167 64.032 34.85C62.0987 32.8833 59.4987 31.9 56.232 31.9C53.732 31.9 51.6154 32.45 49.882 33.55C48.1487 34.65 46.832 36.1167 45.932 37.95C45.0654 39.7833 44.632 41.8167 44.632 44.05C44.632 46.5167 45.1154 48.6667 46.082 50.5C47.0487 52.3333 48.4154 53.75 50.182 54.75C51.9487 55.75 54.032 56.25 56.432 56.25C58.332 56.25 59.9487 56.05 61.282 55.65C62.6487 55.25 63.8487 54.6667 64.882 53.9C65.9487 53.1333 66.9487 52.2 67.882 51.1L69.382 52.9ZM47.382 43.45C47.7487 40.1833 48.7154 37.7833 50.282 36.25C51.8487 34.6833 53.8154 33.9 56.182 33.9C58.3487 33.9 60.1154 34.55 61.482 35.85C62.8487 37.15 63.7154 38.9667 64.082 41.3L47.382 43.45ZM61.332 39.5C61.232 38.7333 60.7154 38.0167 59.782 37.35C58.8487 36.65 57.6487 36.3 56.182 36.3C55.0487 36.3 54.032 36.5333 53.132 37C52.232 37.4333 51.5154 38.0167 50.982 38.75C50.4487 39.45 50.132 40.1833 50.032 40.95L61.332 39.5ZM95.5344 32.55H89.6844L84.9844 54H82.7844L77.6344 30.15H80.0844L83.3344 45.6C83.4344 45.9667 83.5177 46.5667 83.5844 47.4C83.651 48.2 83.701 49.0167 83.7344 49.85C83.801 50.65 83.8344 51.2333 83.8344 51.6H84.0344C84.0344 51.2667 84.051 50.7 84.0844 49.9C84.1177 49.0667 84.1677 48.25 84.2344 47.45C84.301 46.6167 84.3677 46.0333 84.4344 45.7L87.7344 30.15H97.4344L101.034 45.9C101.134 46.3333 101.218 46.9333 101.284 47.7C101.351 48.4333 101.401 49.1667 101.434 49.9C101.468 50.6333 101.484 51.2 101.484 51.6H101.634C101.668 51.2 101.701 50.6333 101.734 49.9C101.768 49.1333 101.818 48.3833 101.884 47.65C101.951 46.8833 102.018 46.3 102.084 45.9L105.184 30.15H107.584L102.834 54H100.584L95.5344 32.55ZM93.3344 43.1C93.1677 42.2667 93.0344 41.2167 92.9344 39.95C92.8344 38.6833 92.7844 37.6167 92.7844 36.75H92.5844C92.5844 37.5833 92.5177 38.6333 92.3844 39.9C92.251 41.1667 92.101 42.2333 91.9344 43.1L88.7344 58H78.3844L71.2344 30.15H73.6844L80.2344 55.6H86.7844L91.5344 34.35H93.9344L98.2344 55.6H104.234L111.034 30.15H113.534L106.034 58H96.2844L93.3344 43.1ZM138.711 19H141.211L147.611 41.25C147.911 42.25 148.161 43.25 148.361 44.25C148.594 45.25 148.794 46.1333 148.961 46.9C149.127 47.6333 149.227 48.15 149.261 48.45H149.461C149.527 48.15 149.627 47.6167 149.761 46.85C149.927 46.0833 150.111 45.2 150.311 44.2C150.544 43.2 150.794 42.2167 151.061 41.25L157.361 19H159.861L150.811 50.85H147.911L138.711 19ZM131.261 19H133.811L145.011 55.6H153.211L164.411 19H166.961L155.011 58H143.211L131.261 19ZM196.628 52.9C194.995 54.8333 193.211 56.2667 191.278 57.2C189.345 58.1333 186.811 58.6 183.678 58.6C180.845 58.6 178.361 58.0167 176.228 56.85C174.095 55.65 172.428 53.9667 171.228 51.8C170.061 49.6 169.478 47.0167 169.478 44.05C169.478 41.3833 170.011 38.95 171.078 36.75C172.178 34.55 173.761 32.8 175.828 31.5C177.928 30.1667 180.478 29.5 183.478 29.5C186.245 29.5 188.628 30.1 190.628 31.3C192.628 32.4667 194.178 34.1333 195.278 36.3C196.378 38.4333 196.928 40.9833 196.928 43.95C196.928 44.1167 196.911 44.3 196.878 44.5C196.878 44.6667 196.878 44.85 196.878 45.05L177.578 47.45C177.845 48.7167 178.595 49.75 179.828 50.55C181.095 51.35 182.595 51.75 184.328 51.75C185.961 51.75 187.495 51.4167 188.928 50.75C190.361 50.0833 191.528 49.1 192.428 47.8L193.978 49.7C192.578 51.2667 191.111 52.4 189.578 53.1C188.045 53.8 186.295 54.15 184.328 54.15C181.995 54.15 179.961 53.4667 178.228 52.1C176.528 50.7 175.361 48.45 174.728 45.35L194.478 42.9C194.278 39.5 193.211 36.8167 191.278 34.85C189.345 32.8833 186.745 31.9 183.478 31.9C180.978 31.9 178.861 32.45 177.128 33.55C175.395 34.65 174.078 36.1167 173.178 37.95C172.311 39.7833 171.878 41.8167 171.878 44.05C171.878 46.5167 172.361 48.6667 173.328 50.5C174.295 52.3333 175.661 53.75 177.428 54.75C179.195 55.75 181.278 56.25 183.678 56.25C185.578 56.25 187.195 56.05 188.528 55.65C189.895 55.25 191.095 54.6667 192.128 53.9C193.195 53.1333 194.195 52.2 195.128 51.1L196.628 52.9ZM174.628 43.45C174.995 40.1833 175.961 37.7833 177.528 36.25C179.095 34.6833 181.061 33.9 183.428 33.9C185.595 33.9 187.361 34.55 188.728 35.85C190.095 37.15 190.961 38.9667 191.328 41.3L174.628 43.45ZM188.578 39.5C188.478 38.7333 187.961 38.0167 187.028 37.35C186.095 36.65 184.895 36.3 183.428 36.3C182.295 36.3 181.278 36.5333 180.378 37C179.478 37.4333 178.761 38.0167 178.228 38.75C177.695 39.45 177.378 40.1833 177.278 40.95L188.578 39.5ZM226.63 39.7C226.63 38.2667 226.314 36.9667 225.68 35.8C225.047 34.6 224.147 33.65 222.98 32.95C221.847 32.25 220.48 31.9 218.88 31.9C217.614 31.9 216.347 32.0167 215.08 32.25C213.814 32.4833 212.564 33.0167 211.33 33.85C210.097 34.6833 208.88 36.0167 207.68 37.85V30.15H210.08V32.7C210.78 31.7 211.847 30.9167 213.28 30.35C214.747 29.7833 216.614 29.5 218.88 29.5C220.947 29.5 222.73 29.9667 224.23 30.9C225.764 31.8 226.947 33.0333 227.78 34.6C228.614 36.1333 229.03 37.8333 229.03 39.7V58H226.63V39.7ZM202.13 30.15H204.53V58H202.13V30.15ZM220.23 41.2C220.23 39.8 219.864 38.7333 219.13 38C218.397 37.2333 217.447 36.85 216.28 36.85C215.047 36.85 213.93 37.1833 212.93 37.85C211.93 38.5167 211.247 39.4667 210.88 40.7V58H208.48V40.4C209.047 38.4333 210.03 36.95 211.43 35.95C212.864 34.95 214.48 34.45 216.28 34.45C218.147 34.45 219.664 35.0333 220.83 36.2C222.03 37.3333 222.63 39 222.63 41.2V58H220.23V41.2ZM256.273 30.15V47.75C255.74 49.6833 254.756 51.1667 253.323 52.2C251.89 53.2 250.273 53.7 248.473 53.7C246.64 53.7 245.123 53.1333 243.923 52C242.723 50.8333 242.123 49.15 242.123 46.95V30.15H244.523V46.95C244.523 48.35 244.89 49.4333 245.623 50.2C246.356 50.9333 247.306 51.3 248.473 51.3C249.74 51.3 250.873 50.9667 251.873 50.3C252.873 49.6333 253.54 48.6833 253.873 47.45V30.15H256.273ZM260.223 30.15H262.623V58H260.223V30.15ZM254.673 55.45C253.973 56.45 252.89 57.2333 251.423 57.8C249.99 58.3333 248.14 58.6 245.873 58.6C242.773 58.6 240.306 57.6667 238.473 55.8C236.64 53.9333 235.723 51.4833 235.723 48.45V30.15H238.123V48.45C238.123 50.7833 238.823 52.6667 240.223 54.1C241.623 55.5333 243.506 56.25 245.873 56.25C247.14 56.25 248.406 56.1333 249.673 55.9C250.94 55.6667 252.19 55.1333 253.423 54.3C254.656 53.4333 255.873 52.1 257.073 50.3V58H254.673V55.45ZM295.066 52.9C293.432 54.8333 291.649 56.2667 289.716 57.2C287.782 58.1333 285.249 58.6 282.116 58.6C279.282 58.6 276.799 58.0167 274.666 56.85C272.532 55.65 270.866 53.9667 269.666 51.8C268.499 49.6 267.916 47.0167 267.916 44.05C267.916 41.3833 268.449 38.95 269.516 36.75C270.616 34.55 272.199 32.8 274.266 31.5C276.366 30.1667 278.916 29.5 281.916 29.5C284.682 29.5 287.066 30.1 289.066 31.3C291.066 32.4667 292.616 34.1333 293.716 36.3C294.816 38.4333 295.366 40.9833 295.366 43.95C295.366 44.1167 295.349 44.3 295.316 44.5C295.316 44.6667 295.316 44.85 295.316 45.05L276.016 47.45C276.282 48.7167 277.032 49.75 278.266 50.55C279.532 51.35 281.032 51.75 282.766 51.75C284.399 51.75 285.932 51.4167 287.366 50.75C288.799 50.0833 289.966 49.1 290.866 47.8L292.416 49.7C291.016 51.2667 289.549 52.4 288.016 53.1C286.482 53.8 284.732 54.15 282.766 54.15C280.432 54.15 278.399 53.4667 276.666 52.1C274.966 50.7 273.799 48.45 273.166 45.35L292.916 42.9C292.716 39.5 291.649 36.8167 289.716 34.85C287.782 32.8833 285.182 31.9 281.916 31.9C279.416 31.9 277.299 32.45 275.566 33.55C273.832 34.65 272.516 36.1167 271.616 37.95C270.749 39.7833 270.316 41.8167 270.316 44.05C270.316 46.5167 270.799 48.6667 271.766 50.5C272.732 52.3333 274.099 53.75 275.866 54.75C277.632 55.75 279.716 56.25 282.116 56.25C284.016 56.25 285.632 56.05 286.966 55.65C288.332 55.25 289.532 54.6667 290.566 53.9C291.632 53.1333 292.632 52.2 293.566 51.1L295.066 52.9ZM273.066 43.45C273.432 40.1833 274.399 37.7833 275.966 36.25C277.532 34.6833 279.499 33.9 281.866 33.9C284.032 33.9 285.799 34.55 287.166 35.85C288.532 37.15 289.399 38.9667 289.766 41.3L273.066 43.45ZM287.016 39.5C286.916 38.7333 286.399 38.0167 285.466 37.35C284.532 36.65 283.332 36.3 281.866 36.3C280.732 36.3 279.716 36.5333 278.816 37C277.916 37.4333 277.199 38.0167 276.666 38.75C276.132 39.45 275.816 40.1833 275.716 40.95L287.016 39.5Z" fill="black"/>
</svg>
