<svg width="175" height="72" viewBox="0 0 175 72" fill="none" xmlns="http://www.w3.org/2000/svg">
<path d="M40.7 21.4H31.8L24.9 50.9H22.45L15.15 21.4H6.8V58H4.4V19H17.05L22.7 41.8C22.9 42.5333 23.05 43.4 23.15 44.4C23.2833 45.4 23.3833 46.2833 23.45 47.05C23.5167 47.8167 23.5667 48.25 23.6 48.35H23.75C23.7833 48.25 23.8333 47.8167 23.9 47.05C23.9667 46.25 24.05 45.3667 24.15 44.4C24.25 43.4 24.3833 42.55 24.55 41.85L29.9 19H43.1V58H40.7V21.4ZM34.75 42.5C34.75 41.8 34.7667 40.8833 34.8 39.75C34.8333 38.5833 34.8833 37.3667 34.95 36.1C35.0167 34.8 35.0667 33.55 35.1 32.35C35.1667 31.1167 35.2167 30.0667 35.25 29.2C35.3167 28.3 35.35 27.7167 35.35 27.45H35.05C35.05 27.75 34.9833 28.3 34.85 29.1C34.75 29.8667 34.6167 30.7667 34.45 31.8C34.3167 32.8 34.15 33.8 33.95 34.8C33.7833 35.7667 33.6167 36.5667 33.45 37.2L28.2 58H19L13.4 37.25C13.2667 36.7833 13.1167 36.1167 12.95 35.25C12.7833 34.35 12.6167 33.4 12.45 32.4C12.2833 31.3667 12.1333 30.4167 12 29.55C11.8667 28.65 11.7667 27.95 11.7 27.45H11.4C11.4333 27.75 11.4667 28.3333 11.5 29.2C11.5667 30.0667 11.6167 31.1 11.65 32.3C11.7167 33.4667 11.7833 34.7 11.85 36C11.9167 37.3 11.9667 38.5333 12 39.7C12.0333 40.8667 12.05 41.85 12.05 42.65V58H9.65V24.85H12.55L20.85 55.6H26.3L34.05 24.85H37.15V58H34.75V42.5ZM76.5598 52.9C74.9264 54.8333 73.1431 56.2667 71.2098 57.2C69.2764 58.1333 66.7431 58.6 63.6098 58.6C60.7764 58.6 58.2931 58.0167 56.1598 56.85C54.0264 55.65 52.3598 53.9667 51.1598 51.8C49.9931 49.6 49.4098 47.0167 49.4098 44.05C49.4098 41.3833 49.9431 38.95 51.0098 36.75C52.1098 34.55 53.6931 32.8 55.7598 31.5C57.8598 30.1667 60.4098 29.5 63.4098 29.5C66.1764 29.5 68.5598 30.1 70.5598 31.3C72.5598 32.4667 74.1098 34.1333 75.2098 36.3C76.3098 38.4333 76.8598 40.9833 76.8598 43.95C76.8598 44.1167 76.8431 44.3 76.8098 44.5C76.8098 44.6667 76.8098 44.85 76.8098 45.05L57.5098 47.45C57.7764 48.7167 58.5264 49.75 59.7598 50.55C61.0264 51.35 62.5264 51.75 64.2598 51.75C65.8931 51.75 67.4264 51.4167 68.8598 50.75C70.2931 50.0833 71.4598 49.1 72.3598 47.8L73.9098 49.7C72.5098 51.2667 71.0431 52.4 69.5098 53.1C67.9764 53.8 66.2264 54.15 64.2598 54.15C61.9264 54.15 59.8931 53.4667 58.1598 52.1C56.4598 50.7 55.2931 48.45 54.6598 45.35L74.4098 42.9C74.2098 39.5 73.1431 36.8167 71.2098 34.85C69.2764 32.8833 66.6764 31.9 63.4098 31.9C60.9098 31.9 58.7931 32.45 57.0598 33.55C55.3264 34.65 54.0098 36.1167 53.1098 37.95C52.2431 39.7833 51.8098 41.8167 51.8098 44.05C51.8098 46.5167 52.2931 48.6667 53.2598 50.5C54.2264 52.3333 55.5931 53.75 57.3598 54.75C59.1264 55.75 61.2098 56.25 63.6098 56.25C65.5098 56.25 67.1264 56.05 68.4598 55.65C69.8264 55.25 71.0264 54.6667 72.0598 53.9C73.1264 53.1333 74.1264 52.2 75.0598 51.1L76.5598 52.9ZM54.5598 43.45C54.9264 40.1833 55.8931 37.7833 57.4598 36.25C59.0264 34.6833 60.9931 33.9 63.3598 33.9C65.5264 33.9 67.2931 34.55 68.6598 35.85C70.0264 37.15 70.8931 38.9667 71.2598 41.3L54.5598 43.45ZM68.5098 39.5C68.4098 38.7333 67.8931 38.0167 66.9598 37.35C66.0264 36.65 64.8264 36.3 63.3598 36.3C62.2264 36.3 61.2098 36.5333 60.3098 37C59.4098 37.4333 58.6931 38.0167 58.1598 38.75C57.6264 39.45 57.3098 40.1833 57.2098 40.95L68.5098 39.5ZM106.562 39.7C106.562 38.2667 106.245 36.9667 105.612 35.8C104.979 34.6 104.079 33.65 102.912 32.95C101.779 32.25 100.412 31.9 98.8121 31.9C97.5454 31.9 96.2788 32.0167 95.0121 32.25C93.7454 32.4833 92.4954 33.0167 91.2621 33.85C90.0288 34.6833 88.8121 36.0167 87.6121 37.85V30.15H90.0121V32.7C90.7121 31.7 91.7788 30.9167 93.2121 30.35C94.6788 29.7833 96.5454 29.5 98.8121 29.5C100.879 29.5 102.662 29.9667 104.162 30.9C105.695 31.8 106.879 33.0333 107.712 34.6C108.545 36.1333 108.962 37.8333 108.962 39.7V58H106.562V39.7ZM82.0621 30.15H84.4621V58H82.0621V30.15ZM100.162 41.2C100.162 39.8 99.7954 38.7333 99.0621 38C98.3288 37.2333 97.3788 36.85 96.2121 36.85C94.9788 36.85 93.8621 37.1833 92.8621 37.85C91.8621 38.5167 91.1788 39.4667 90.8121 40.7V58H88.4121V40.4C88.9788 38.4333 89.9621 36.95 91.3621 35.95C92.7954 34.95 94.4121 34.45 96.2121 34.45C98.0788 34.45 99.5954 35.0333 100.762 36.2C101.962 37.3333 102.562 39 102.562 41.2V58H100.162V41.2ZM136.205 30.15V47.75C135.671 49.6833 134.688 51.1667 133.255 52.2C131.821 53.2 130.205 53.7 128.405 53.7C126.571 53.7 125.055 53.1333 123.855 52C122.655 50.8333 122.055 49.15 122.055 46.95V30.15H124.455V46.95C124.455 48.35 124.821 49.4333 125.555 50.2C126.288 50.9333 127.238 51.3 128.405 51.3C129.671 51.3 130.805 50.9667 131.805 50.3C132.805 49.6333 133.471 48.6833 133.805 47.45V30.15H136.205ZM140.155 30.15H142.555V58H140.155V30.15ZM134.605 55.45C133.905 56.45 132.821 57.2333 131.355 57.8C129.921 58.3333 128.071 58.6 125.805 58.6C122.705 58.6 120.238 57.6667 118.405 55.8C116.571 53.9333 115.655 51.4833 115.655 48.45V30.15H118.055V48.45C118.055 50.7833 118.755 52.6667 120.155 54.1C121.555 55.5333 123.438 56.25 125.805 56.25C127.071 56.25 128.338 56.1333 129.605 55.9C130.871 55.6667 132.121 55.1333 133.355 54.3C134.588 53.4333 135.805 52.1 137.005 50.3V58H134.605V55.45ZM171.197 35.75C169.564 34.2167 167.864 33.2 166.097 32.7C164.331 32.1667 162.464 31.9 160.497 31.9C157.497 31.9 155.131 32.45 153.397 33.55C151.697 34.6167 150.847 36.0667 150.847 37.9C150.847 41.2667 153.531 43.4833 158.897 44.55C160.997 44.9833 162.581 45.4833 163.647 46.05C164.714 46.5833 165.431 47.1833 165.797 47.85C166.164 48.4833 166.347 49.2 166.347 50C166.347 51.2 165.964 52.2167 165.197 53.05C164.431 53.85 162.981 54.25 160.847 54.25C159.214 54.25 157.397 53.8167 155.397 52.95C153.431 52.05 151.647 50.8667 150.047 49.4L151.297 47.25C152.131 48.15 153.114 48.95 154.247 49.65C155.381 50.3167 156.531 50.85 157.697 51.25C158.864 51.65 159.914 51.85 160.847 51.85C161.947 51.85 162.731 51.7 163.197 51.4C163.697 51.1 163.947 50.6333 163.947 50C163.947 49.2 163.564 48.6 162.797 48.2C162.064 47.7667 160.614 47.3333 158.447 46.9C154.914 46.1667 152.364 45.0333 150.797 43.5C149.231 41.9667 148.447 40.1 148.447 37.9C148.447 35.5333 149.481 33.55 151.547 31.95C153.647 30.3167 156.631 29.5 160.497 29.5C163.064 29.5 165.397 29.8833 167.497 30.65C169.597 31.4167 171.214 32.4667 172.347 33.8L171.197 35.75ZM168.947 39.55C167.847 38.3833 166.531 37.5 164.997 36.9C163.497 36.2667 161.947 35.95 160.347 35.95C159.214 35.95 158.414 36.1 157.947 36.4C157.514 36.7 157.297 37.1333 157.297 37.7C157.297 38.1 157.397 38.4333 157.597 38.7C157.831 38.9667 158.281 39.2167 158.947 39.45C159.647 39.65 160.664 39.8833 161.997 40.15C165.831 40.8833 168.614 42.0667 170.347 43.7C172.081 45.3333 172.947 47.4333 172.947 50C172.947 52.7667 171.881 54.9 169.747 56.4C167.647 57.8667 164.564 58.6 160.497 58.6C158.031 58.6 155.614 58.1833 153.247 57.35C150.914 56.4833 149.031 55.1833 147.597 53.45L148.747 51.55C150.647 53.3833 152.581 54.6333 154.547 55.3C156.514 55.9333 158.497 56.25 160.497 56.25C163.664 56.25 166.131 55.75 167.897 54.75C169.664 53.75 170.547 52.1667 170.547 50C170.547 47.9667 169.814 46.3667 168.347 45.2C166.881 44 164.614 43.1 161.547 42.5C159.447 42.0667 157.931 41.6 156.997 41.1C156.064 40.6 155.481 40.0667 155.247 39.5C155.014 38.9 154.897 38.3 154.897 37.7C154.897 36.9667 155.047 36.3 155.347 35.7C155.647 35.0667 156.181 34.55 156.947 34.15C157.747 33.75 158.881 33.55 160.347 33.55C161.981 33.55 163.647 33.85 165.347 34.45C167.047 35.05 168.664 36.05 170.197 37.45L168.947 39.55Z" fill="black"/>
</svg>
