<svg width="270" height="40" viewBox="0 0 270 40" fill="none" xmlns="http://www.w3.org/2000/svg">
<path d="M11.65 20.35C11.1167 19.2167 10.6 18 10.1 16.7C9.63333 15.3667 9.21667 14.1 8.85 12.9C8.51667 11.6667 8.25 10.65 8.05 9.85H7.9C8.26667 11.7833 8.55 14.0167 8.75 16.55C8.95 19.05 9.05 21.7333 9.05 24.6V39H6.65V7.15H8L22.05 36.6H29.55V-1.54972e-06H31.95V39H20.55L11.65 20.35ZM9.9 2.4H2.8V39H0.4V-1.54972e-06H11.4L20.35 18.45C21.0167 19.8167 21.6333 21.2167 22.2 22.65C22.7667 24.05 23.2333 25.3167 23.6 26.45C24 27.55 24.2333 28.3333 24.3 28.8H24.55C24.1167 26.3333 23.8 23.9167 23.6 21.55C23.4 19.1833 23.3 17.0333 23.3 15.1V-1.54972e-06H25.7V31.5H24.05L9.9 2.4ZM65.382 33.9C63.7487 35.8333 61.9654 37.2667 60.032 38.2C58.0987 39.1333 55.5654 39.6 52.432 39.6C49.5987 39.6 47.1154 39.0167 44.982 37.85C42.8487 36.65 41.182 34.9667 39.982 32.8C38.8154 30.6 38.232 28.0167 38.232 25.05C38.232 22.3833 38.7654 19.95 39.832 17.75C40.932 15.55 42.5154 13.8 44.582 12.5C46.682 11.1667 49.232 10.5 52.232 10.5C54.9987 10.5 57.382 11.1 59.382 12.3C61.382 13.4667 62.932 15.1333 64.032 17.3C65.132 19.4333 65.682 21.9833 65.682 24.95C65.682 25.1167 65.6654 25.3 65.632 25.5C65.632 25.6667 65.632 25.85 65.632 26.05L46.332 28.45C46.5987 29.7167 47.3487 30.75 48.582 31.55C49.8487 32.35 51.3487 32.75 53.082 32.75C54.7154 32.75 56.2487 32.4167 57.682 31.75C59.1154 31.0833 60.282 30.1 61.182 28.8L62.732 30.7C61.332 32.2667 59.8654 33.4 58.332 34.1C56.7987 34.8 55.0487 35.15 53.082 35.15C50.7487 35.15 48.7154 34.4667 46.982 33.1C45.282 31.7 44.1154 29.45 43.482 26.35L63.232 23.9C63.032 20.5 61.9654 17.8167 60.032 15.85C58.0987 13.8833 55.4987 12.9 52.232 12.9C49.732 12.9 47.6154 13.45 45.882 14.55C44.1487 15.65 42.832 17.1167 41.932 18.95C41.0654 20.7833 40.632 22.8167 40.632 25.05C40.632 27.5167 41.1154 29.6667 42.082 31.5C43.0487 33.3333 44.4154 34.75 46.182 35.75C47.9487 36.75 50.032 37.25 52.432 37.25C54.332 37.25 55.9487 37.05 57.282 36.65C58.6487 36.25 59.8487 35.6667 60.882 34.9C61.9487 34.1333 62.9487 33.2 63.882 32.1L65.382 33.9ZM43.382 24.45C43.7487 21.1833 44.7154 18.7833 46.282 17.25C47.8487 15.6833 49.8154 14.9 52.182 14.9C54.3487 14.9 56.1154 15.55 57.482 16.85C58.8487 18.15 59.7154 19.9667 60.082 22.3L43.382 24.45ZM57.332 20.5C57.232 19.7333 56.7154 19.0167 55.782 18.35C54.8487 17.65 53.6487 17.3 52.182 17.3C51.0487 17.3 50.032 17.5333 49.132 18C48.232 18.4333 47.5154 19.0167 46.982 19.75C46.4487 20.45 46.132 21.1833 46.032 21.95L57.332 20.5ZM91.5344 13.55H85.6844L80.9844 35H78.7844L73.6344 11.15H76.0844L79.3344 26.6C79.4344 26.9667 79.5177 27.5667 79.5844 28.4C79.651 29.2 79.701 30.0167 79.7344 30.85C79.801 31.65 79.8344 32.2333 79.8344 32.6H80.0344C80.0344 32.2667 80.051 31.7 80.0844 30.9C80.1177 30.0667 80.1677 29.25 80.2344 28.45C80.301 27.6167 80.3677 27.0333 80.4344 26.7L83.7344 11.15H93.4344L97.0344 26.9C97.1344 27.3333 97.2177 27.9333 97.2844 28.7C97.351 29.4333 97.401 30.1667 97.4344 30.9C97.4677 31.6333 97.4844 32.2 97.4844 32.6H97.6344C97.6677 32.2 97.701 31.6333 97.7344 30.9C97.7677 30.1333 97.8177 29.3833 97.8844 28.65C97.951 27.8833 98.0177 27.3 98.0844 26.9L101.184 11.15H103.584L98.8344 35H96.5844L91.5344 13.55ZM89.3344 24.1C89.1677 23.2667 89.0344 22.2167 88.9344 20.95C88.8344 19.6833 88.7844 18.6167 88.7844 17.75H88.5844C88.5844 18.5833 88.5177 19.6333 88.3844 20.9C88.251 22.1667 88.101 23.2333 87.9344 24.1L84.7344 39H74.3844L67.2344 11.15H69.6844L76.2344 36.6H82.7844L87.5344 15.35H89.9344L94.2344 36.6H100.234L107.034 11.15H109.534L102.034 39H92.2844L89.3344 24.1ZM167.511 2.4H158.611L151.711 31.9H149.261L141.961 2.4H133.611V39H131.211V-1.54972e-06H143.861L149.511 22.8C149.711 23.5333 149.861 24.4 149.961 25.4C150.094 26.4 150.194 27.2833 150.261 28.05C150.327 28.8167 150.377 29.25 150.411 29.35H150.561C150.594 29.25 150.644 28.8167 150.711 28.05C150.777 27.25 150.861 26.3667 150.961 25.4C151.061 24.4 151.194 23.55 151.361 22.85L156.711 -1.54972e-06H169.911V39H167.511V2.4ZM161.561 23.5C161.561 22.8 161.577 21.8833 161.611 20.75C161.644 19.5833 161.694 18.3667 161.761 17.1C161.827 15.8 161.877 14.55 161.911 13.35C161.977 12.1167 162.027 11.0667 162.061 10.2C162.127 9.3 162.161 8.71667 162.161 8.45H161.861C161.861 8.75 161.794 9.3 161.661 10.1C161.561 10.8667 161.427 11.7667 161.261 12.8C161.127 13.8 160.961 14.8 160.761 15.8C160.594 16.7667 160.427 17.5667 160.261 18.2L155.011 39H145.811L140.211 18.25C140.077 17.7833 139.927 17.1167 139.761 16.25C139.594 15.35 139.427 14.4 139.261 13.4C139.094 12.3667 138.944 11.4167 138.811 10.55C138.677 9.65 138.577 8.95 138.511 8.45H138.211C138.244 8.75 138.277 9.33333 138.311 10.2C138.377 11.0667 138.427 12.1 138.461 13.3C138.527 14.4667 138.594 15.7 138.661 17C138.727 18.3 138.777 19.5333 138.811 20.7C138.844 21.8667 138.861 22.85 138.861 23.65V39H136.461V5.85H139.361L147.661 36.6H153.111L160.861 5.85H163.961V39H161.561V23.5ZM203.37 33.9C201.737 35.8333 199.954 37.2667 198.02 38.2C196.087 39.1333 193.554 39.6 190.42 39.6C187.587 39.6 185.104 39.0167 182.97 37.85C180.837 36.65 179.17 34.9667 177.97 32.8C176.804 30.6 176.22 28.0167 176.22 25.05C176.22 22.3833 176.754 19.95 177.82 17.75C178.92 15.55 180.504 13.8 182.57 12.5C184.67 11.1667 187.22 10.5 190.22 10.5C192.987 10.5 195.37 11.1 197.37 12.3C199.37 13.4667 200.92 15.1333 202.02 17.3C203.12 19.4333 203.67 21.9833 203.67 24.95C203.67 25.1167 203.654 25.3 203.62 25.5C203.62 25.6667 203.62 25.85 203.62 26.05L184.32 28.45C184.587 29.7167 185.337 30.75 186.57 31.55C187.837 32.35 189.337 32.75 191.07 32.75C192.704 32.75 194.237 32.4167 195.67 31.75C197.104 31.0833 198.27 30.1 199.17 28.8L200.72 30.7C199.32 32.2667 197.854 33.4 196.32 34.1C194.787 34.8 193.037 35.15 191.07 35.15C188.737 35.15 186.704 34.4667 184.97 33.1C183.27 31.7 182.104 29.45 181.47 26.35L201.22 23.9C201.02 20.5 199.954 17.8167 198.02 15.85C196.087 13.8833 193.487 12.9 190.22 12.9C187.72 12.9 185.604 13.45 183.87 14.55C182.137 15.65 180.82 17.1167 179.92 18.95C179.054 20.7833 178.62 22.8167 178.62 25.05C178.62 27.5167 179.104 29.6667 180.07 31.5C181.037 33.3333 182.404 34.75 184.17 35.75C185.937 36.75 188.02 37.25 190.42 37.25C192.32 37.25 193.937 37.05 195.27 36.65C196.637 36.25 197.837 35.6667 198.87 34.9C199.937 34.1333 200.937 33.2 201.87 32.1L203.37 33.9ZM181.37 24.45C181.737 21.1833 182.704 18.7833 184.27 17.25C185.837 15.6833 187.804 14.9 190.17 14.9C192.337 14.9 194.104 15.55 195.47 16.85C196.837 18.15 197.704 19.9667 198.07 22.3L181.37 24.45ZM195.32 20.5C195.22 19.7333 194.704 19.0167 193.77 18.35C192.837 17.65 191.637 17.3 190.17 17.3C189.037 17.3 188.02 17.5333 187.12 18C186.22 18.4333 185.504 19.0167 184.97 19.75C184.437 20.45 184.12 21.1833 184.02 21.95L195.32 20.5ZM233.373 20.7C233.373 19.2667 233.056 17.9667 232.423 16.8C231.789 15.6 230.889 14.65 229.723 13.95C228.589 13.25 227.223 12.9 225.623 12.9C224.356 12.9 223.089 13.0167 221.823 13.25C220.556 13.4833 219.306 14.0167 218.073 14.85C216.839 15.6833 215.623 17.0167 214.423 18.85V11.15H216.823V13.7C217.523 12.7 218.589 11.9167 220.023 11.35C221.489 10.7833 223.356 10.5 225.623 10.5C227.689 10.5 229.473 10.9667 230.973 11.9C232.506 12.8 233.689 14.0333 234.523 15.6C235.356 17.1333 235.773 18.8333 235.773 20.7V39H233.373V20.7ZM208.873 11.15H211.273V39H208.873V11.15ZM226.973 22.2C226.973 20.8 226.606 19.7333 225.873 19C225.139 18.2333 224.189 17.85 223.023 17.85C221.789 17.85 220.673 18.1833 219.673 18.85C218.673 19.5167 217.989 20.4667 217.623 21.7V39H215.223V21.4C215.789 19.4333 216.773 17.95 218.173 16.95C219.606 15.95 221.223 15.45 223.023 15.45C224.889 15.45 226.406 16.0333 227.573 17.2C228.773 18.3333 229.373 20 229.373 22.2V39H226.973V22.2ZM263.015 11.15V28.75C262.482 30.6833 261.499 32.1667 260.065 33.2C258.632 34.2 257.015 34.7 255.215 34.7C253.382 34.7 251.865 34.1333 250.665 33C249.465 31.8333 248.865 30.15 248.865 27.95V11.15H251.265V27.95C251.265 29.35 251.632 30.4333 252.365 31.2C253.099 31.9333 254.049 32.3 255.215 32.3C256.482 32.3 257.615 31.9667 258.615 31.3C259.615 30.6333 260.282 29.6833 260.615 28.45V11.15H263.015ZM266.965 11.15H269.365V39H266.965V11.15ZM261.415 36.45C260.715 37.45 259.632 38.2333 258.165 38.8C256.732 39.3333 254.882 39.6 252.615 39.6C249.515 39.6 247.049 38.6667 245.215 36.8C243.382 34.9333 242.465 32.4833 242.465 29.45V11.15H244.865V29.45C244.865 31.7833 245.565 33.6667 246.965 35.1C248.365 36.5333 250.249 37.25 252.615 37.25C253.882 37.25 255.149 37.1333 256.415 36.9C257.682 36.6667 258.932 36.1333 260.165 35.3C261.399 34.4333 262.615 33.1 263.815 31.3V39H261.415V36.45Z" fill="black"/>
</svg>
